<svg width="800" height="500" xmlns="http://www.w3.org/2000/svg">
  <defs>
    <linearGradient id="techGradient" x1="0%" y1="0%" x2="100%" y2="100%">
      <stop offset="0%" style="stop-color:#00d4ff;stop-opacity:1" />
      <stop offset="100%" style="stop-color:#007acc;stop-opacity:1" />
    </linearGradient>
    <linearGradient id="jsGrad" x1="0%" y1="0%" x2="100%" y2="100%">
      <stop offset="0%" style="stop-color:#f7df1e;stop-opacity:1" />
      <stop offset="100%" style="stop-color:#f0db4f;stop-opacity:1" />
    </linearGradient>
    <linearGradient id="reactGrad" x1="0%" y1="0%" x2="100%" y2="100%">
      <stop offset="0%" style="stop-color:#61dafb;stop-opacity:1" />
      <stop offset="100%" style="stop-color:#21d4fd;stop-opacity:1" />
    </linearGradient>
    <linearGradient id="nodeGrad" x1="0%" y1="0%" x2="100%" y2="100%">
      <stop offset="0%" style="stop-color:#68a063;stop-opacity:1" />
      <stop offset="100%" style="stop-color:#43853d;stop-opacity:1" />
    </linearGradient>
    <linearGradient id="javaGrad" x1="0%" y1="0%" x2="100%" y2="100%">
      <stop offset="0%" style="stop-color:#f89820;stop-opacity:1" />
      <stop offset="100%" style="stop-color:#ed8b00;stop-opacity:1" />
    </linearGradient>
    <linearGradient id="awsGrad" x1="0%" y1="0%" x2="100%" y2="100%">
      <stop offset="0%" style="stop-color:#ff9900;stop-opacity:1" />
      <stop offset="100%" style="stop-color:#ff5722;stop-opacity:1" />
    </linearGradient>
    <linearGradient id="dockerGrad" x1="0%" y1="0%" x2="100%" y2="100%">
      <stop offset="0%" style="stop-color:#2496ed;stop-opacity:1" />
      <stop offset="100%" style="stop-color:#0db7ed;stop-opacity:1" />
    </linearGradient>
    <filter id="techGlow">
      <feGaussianBlur stdDeviation="4" result="coloredBlur"/>
      <feMerge> 
        <feMergeNode in="coloredBlur"/>
        <feMergeNode in="SourceGraphic"/>
      </feMerge>
    </filter>
    <filter id="shadow">
      <feDropShadow dx="2" dy="2" stdDeviation="3" flood-color="#000000" flood-opacity="0.5"/>
    </filter>
  </defs>
  
  <!-- Background -->
  <rect width="100%" height="100%" fill="#0d1117"/>
  
  <!-- Floating Tech Cubes with 3D Effect -->
  
  <!-- TypeScript Cube -->
  <g transform="translate(80,100)">
    <g>
      <!-- Cube faces -->
      <path d="M0,0 L40,0 L50,10 L10,10 Z" fill="url(#techGradient)" opacity="0.9" filter="url(#shadow)"/>
      <path d="M40,0 L40,40 L50,50 L50,10 Z" fill="url(#techGradient)" opacity="0.7" filter="url(#shadow)"/>
      <path d="M0,0 L0,40 L10,50 L10,10 Z" fill="url(#techGradient)" opacity="0.8" filter="url(#shadow)"/>
      <rect x="0" y="0" width="40" height="40" fill="url(#techGradient)" filter="url(#techGlow)"/>
      
      <!-- Rotation animation -->
      <animateTransform attributeName="transform" type="rotate" 
        values="0 25 25;360 25 25" dur="6s" repeatCount="indefinite"/>
    </g>
    <text x="60" y="25" fill="#00d4ff" font-family="monospace" font-size="14" font-weight="bold">TypeScript</text>
  </g>
  
  <!-- JavaScript Cube -->
  <g transform="translate(250,60)">
    <g>
      <path d="M0,0 L35,0 L45,10 L10,10 Z" fill="url(#jsGrad)" opacity="0.9" filter="url(#shadow)"/>
      <path d="M35,0 L35,35 L45,45 L45,10 Z" fill="url(#jsGrad)" opacity="0.7" filter="url(#shadow)"/>
      <path d="M0,0 L0,35 L10,45 L10,10 Z" fill="url(#jsGrad)" opacity="0.8" filter="url(#shadow)"/>
      <rect x="0" y="0" width="35" height="35" fill="url(#jsGrad)" filter="url(#techGlow)"/>
      
      <animateTransform attributeName="transform" type="rotate" 
        values="0 22.5 22.5;-360 22.5 22.5" dur="5s" repeatCount="indefinite"/>
    </g>
    <text x="55" y="25" fill="#f7df1e" font-family="monospace" font-size="14" font-weight="bold">JavaScript</text>
  </g>
  
  <!-- React Cube -->
  <g transform="translate(120,200)">
    <g>
      <path d="M0,0 L45,0 L55,10 L10,10 Z" fill="url(#reactGrad)" opacity="0.9" filter="url(#shadow)"/>
      <path d="M45,0 L45,45 L55,55 L55,10 Z" fill="url(#reactGrad)" opacity="0.7" filter="url(#shadow)"/>
      <path d="M0,0 L0,45 L10,55 L10,10 Z" fill="url(#reactGrad)" opacity="0.8" filter="url(#shadow)"/>
      <rect x="0" y="0" width="45" height="45" fill="url(#reactGrad)" filter="url(#techGlow)"/>
      
      <animateTransform attributeName="transform" type="rotate" 
        values="0 27.5 27.5;360 27.5 27.5" dur="4s" repeatCount="indefinite"/>
    </g>
    <text x="65" y="30" fill="#61dafb" font-family="monospace" font-size="14" font-weight="bold">React</text>
  </g>
  
  <!-- Node.js Cube -->
  <g transform="translate(350,140)">
    <g>
      <path d="M0,0 L38,0 L48,10 L10,10 Z" fill="url(#nodeGrad)" opacity="0.9" filter="url(#shadow)"/>
      <path d="M38,0 L38,38 L48,48 L48,10 Z" fill="url(#nodeGrad)" opacity="0.7" filter="url(#shadow)"/>
      <path d="M0,0 L0,38 L10,48 L10,10 Z" fill="url(#nodeGrad)" opacity="0.8" filter="url(#shadow)"/>
      <rect x="0" y="0" width="38" height="38" fill="url(#nodeGrad)" filter="url(#techGlow)"/>
      
      <animateTransform attributeName="transform" type="rotate" 
        values="0 24 24;-360 24 24" dur="7s" repeatCount="indefinite"/>
    </g>
    <text x="58" y="27" fill="#68a063" font-family="monospace" font-size="14" font-weight="bold">Node.js</text>
  </g>
  
  <!-- Java Cube -->
  <g transform="translate(500,80)">
    <g>
      <path d="M0,0 L42,0 L52,10 L10,10 Z" fill="url(#javaGrad)" opacity="0.9" filter="url(#shadow)"/>
      <path d="M42,0 L42,42 L52,52 L52,10 Z" fill="url(#javaGrad)" opacity="0.7" filter="url(#shadow)"/>
      <path d="M0,0 L0,42 L10,52 L10,10 Z" fill="url(#javaGrad)" opacity="0.8" filter="url(#shadow)"/>
      <rect x="0" y="0" width="42" height="42" fill="url(#javaGrad)" filter="url(#techGlow)"/>
      
      <animateTransform attributeName="transform" type="rotate" 
        values="0 26 26;360 26 26" dur="5.5s" repeatCount="indefinite"/>
    </g>
    <text x="62" y="30" fill="#f89820" font-family="monospace" font-size="14" font-weight="bold">Java</text>
  </g>
  
  <!-- AWS Cube -->
  <g transform="translate(180,320)">
    <g>
      <path d="M0,0 L40,0 L50,10 L10,10 Z" fill="url(#awsGrad)" opacity="0.9" filter="url(#shadow)"/>
      <path d="M40,0 L40,40 L50,50 L50,10 Z" fill="url(#awsGrad)" opacity="0.7" filter="url(#shadow)"/>
      <path d="M0,0 L0,40 L10,50 L10,10 Z" fill="url(#awsGrad)" opacity="0.8" filter="url(#shadow)"/>
      <rect x="0" y="0" width="40" height="40" fill="url(#awsGrad)" filter="url(#techGlow)"/>
      
      <animateTransform attributeName="transform" type="rotate" 
        values="0 25 25;-360 25 25" dur="6.5s" repeatCount="indefinite"/>
    </g>
    <text x="60" y="27" fill="#ff9900" font-family="monospace" font-size="14" font-weight="bold">AWS</text>
  </g>
  
  <!-- Docker Cube -->
  <g transform="translate(400,260)">
    <g>
      <path d="M0,0 L36,0 L46,10 L10,10 Z" fill="url(#dockerGrad)" opacity="0.9" filter="url(#shadow)"/>
      <path d="M36,0 L36,36 L46,46 L46,10 Z" fill="url(#dockerGrad)" opacity="0.7" filter="url(#shadow)"/>
      <path d="M0,0 L0,36 L10,46 L10,10 Z" fill="url(#dockerGrad)" opacity="0.8" filter="url(#shadow)"/>
      <rect x="0" y="0" width="36" height="36" fill="url(#dockerGrad)" filter="url(#techGlow)"/>
      
      <animateTransform attributeName="transform" type="rotate" 
        values="0 23 23;360 23 23" dur="4.5s" repeatCount="indefinite"/>
    </g>
    <text x="56" y="25" fill="#2496ed" font-family="monospace" font-size="14" font-weight="bold">Docker</text>
  </g>
  
  <!-- Central Developer Hub -->
  <g transform="translate(400,200)">
    <circle cx="0" cy="0" r="40" fill="none" stroke="#00d4ff" stroke-width="3" filter="url(#techGlow)">
      <animate attributeName="r" values="35;45;35" dur="3s" repeatCount="indefinite"/>
      <animate attributeName="stroke-width" values="2;4;2" dur="2s" repeatCount="indefinite"/>
    </circle>
    <circle cx="0" cy="0" r="30" fill="rgba(0,212,255,0.1)" stroke="#007acc" stroke-width="2">
      <animate attributeName="r" values="25;35;25" dur="4s" repeatCount="indefinite"/>
    </circle>
    <text x="-30" y="8" fill="#00d4ff" font-family="monospace" font-size="20" font-weight="bold">
      ELEBEG
      <animate attributeName="opacity" values="0.7;1;0.7" dur="2s" repeatCount="indefinite"/>
    </text>
  </g>
  
  <!-- Connecting Lines with Animation -->
  <line x1="400" y1="200" x2="480" y2="101" stroke="#00d4ff" stroke-width="2" opacity="0.6">
    <animate attributeName="opacity" values="0.3;0.9;0.3" dur="2s" repeatCount="indefinite"/>
    <animate attributeName="stroke-width" values="1;3;1" dur="3s" repeatCount="indefinite"/>
  </line>
  <line x1="400" y1="200" x2="370" y2="160" stroke="#00d4ff" stroke-width="2" opacity="0.6">
    <animate attributeName="opacity" values="0.3;0.9;0.3" dur="2.5s" repeatCount="indefinite"/>
    <animate attributeName="stroke-width" values="1;3;1" dur="3.5s" repeatCount="indefinite"/>
  </line>
  <line x1="400" y1="200" x2="145" y2="222" stroke="#00d4ff" stroke-width="2" opacity="0.6">
    <animate attributeName="opacity" values="0.3;0.9;0.3" dur="3s" repeatCount="indefinite"/>
    <animate attributeName="stroke-width" values="1;3;1" dur="2.5s" repeatCount="indefinite"/>
  </line>
  <line x1="400" y1="200" x2="270" y2="77" stroke="#00d4ff" stroke-width="2" opacity="0.6">
    <animate attributeName="opacity" values="0.3;0.9;0.3" dur="2.2s" repeatCount="indefinite"/>
    <animate attributeName="stroke-width" values="1;3;1" dur="4s" repeatCount="indefinite"/>
  </line>
  
  <!-- Footer -->
  <text x="50" y="450" fill="#58a6ff" font-family="monospace" font-size="16" font-weight="bold">
    Full Stack Developer | Tech Enthusiast
  </text>
  <text x="50" y="470" fill="#7c3aed" font-family="monospace" font-size="14">
    Building the future, one commit at a time ☕ 🚀
  </text>
  
</svg>
